<svg width="325" height="108" viewBox="0 0 325 108" fill="none" xmlns="http://www.w3.org/2000/svg">
<rect y="0.813477" width="324.912" height="106.724" rx="8" fill="#F1F1F1"/>
<path d="M20.4614 40.7603C20.7826 31.3139 28.0074 23.5445 37.4056 22.5389L45.4153 21.682C50.8111 21.1046 56.2532 21.1077 61.6483 21.691L69.339 22.5226C78.728 23.5378 85.9412 31.3034 86.2621 40.7417L86.7241 54.3337L86.2679 67.7547C85.9445 77.2668 78.624 85.0675 69.1516 85.9937L60.7478 86.8154C55.8357 87.2957 50.8884 87.2957 45.9763 86.8154L37.5726 85.9937C28.1001 85.0675 20.7796 77.2668 20.4563 67.7547L20 54.3337L20.4614 40.7603Z" fill="#132F38"/>
<g clip-path="url(#clip0_722_2917)">
<path fill-rule="evenodd" clip-rule="evenodd" d="M54.9727 46.3721V48.8174L51.1328 44.9775C51.8047 40.3994 55.75 36.8838 60.5156 36.8838C65.7539 36.8838 70 41.1338 70 46.3721V57.2627L66.0586 53.3213V46.3721C66.0586 43.3096 63.5742 40.8291 60.5156 40.8291C57.4531 40.8291 54.9727 43.3096 54.9727 46.3721ZM66.0586 57.3877V59.9033L70 63.8447V61.3291L66.0586 57.3877ZM51.0273 58.8096L54.8711 62.6533C54.1992 67.2314 50.2539 70.7471 45.4844 70.7471C40.2461 70.7471 36 66.501 36 61.2627V43.7822L39.9414 47.7236V61.2627C39.9414 64.3252 42.4258 66.8057 45.4844 66.8057C48.5469 66.8057 51.0273 64.3252 51.0273 61.2627V58.8096Z" fill="white"/>
<path fill-rule="evenodd" clip-rule="evenodd" d="M36 39.6025V36.8135H38.7891L70 68.0244V70.8135H67.2109L36 39.6025Z" fill="white"/>
<path fill-rule="evenodd" clip-rule="evenodd" d="M70 70.8135V61.2041L66.0586 57.2627V70.8135H70Z" fill="white"/>
<path fill-rule="evenodd" clip-rule="evenodd" d="M70 66.8721H56.4492L60.3906 70.8135H70V66.8721Z" fill="white"/>
</g>
<path d="M132.678 39.4378V58.3492C132.678 65.6094 128.244 71.0002 119.723 71.0002C111.159 71.0002 106.724 65.6094 106.724 58.3492V39.4378H113.506V58.0883C113.506 61.8706 116.115 64.7399 119.723 64.7399C123.288 64.7399 125.896 61.8706 125.896 58.0883V39.4378H132.678Z" fill="#132F38"/>
<path d="M138.122 70.2177V49.0891H144.382V51.9585H144.469C145.339 50.3064 147.469 48.5675 150.642 48.5675C157.25 48.5675 158.468 52.9149 158.468 58.5666V70.2177H151.947V59.8708C151.947 57.4362 151.903 54.3061 148.556 54.3061C145.165 54.3061 144.643 56.958 144.643 59.6969V70.2177H138.122Z" fill="#132F38"/>
<path d="M163.173 70.2177V49.0891H169.694V70.2177H163.173ZM162.651 42.4376C162.651 40.3508 164.346 38.6553 166.433 38.6553C168.52 38.6553 170.215 40.3508 170.215 42.4376C170.215 44.5243 168.52 46.2198 166.433 46.2198C164.346 46.2198 162.651 44.5243 162.651 42.4376Z" fill="#132F38"/>
<path d="M188.769 49.0891V54.3061H183.03V61.3489C183.03 63.6096 183.291 65.2616 186.117 65.2616C186.812 65.2616 188.204 65.1747 188.769 64.653V70.0873C187.334 70.609 185.726 70.7394 184.204 70.7394C179.856 70.7394 176.509 68.9569 176.509 64.3486V54.3061H172.335V49.0891H176.509V42.8288H183.03V49.0891H188.769Z" fill="#132F38"/>
<path d="M207.516 63.2183L212.081 66.5658C209.994 69.2178 206.56 70.7394 203.169 70.7394C196.647 70.7394 191.43 66.3919 191.43 59.6534C191.43 52.9149 196.647 48.5675 203.169 48.5675C209.255 48.5675 213.081 52.9149 213.081 59.6534V61.6967H197.952C198.473 64.1747 200.343 65.7833 202.864 65.7833C204.994 65.7833 206.429 64.6964 207.516 63.2183ZM197.952 57.2623H206.56C206.603 55.0886 204.908 53.2627 202.56 53.2627C199.691 53.2627 198.126 55.219 197.952 57.2623Z" fill="#132F38"/>
<path d="M217.872 70.2177V39.4378H229.784C236.088 39.4378 241.392 41.6116 241.392 48.7848C241.392 53.0888 239.088 56.4363 234.74 57.2189L242.566 70.2177H234.436L228.002 57.9144H224.654V70.2177H217.872ZM224.654 45.1765V52.1758H228.654C231.132 52.1758 234.349 52.0889 234.349 48.7414C234.349 45.6547 231.567 45.1765 229.089 45.1765H224.654Z" fill="#132F38"/>
<path d="M245.324 70.2177V49.0891H251.845V70.2177H245.324ZM244.802 42.4376C244.802 40.3508 246.498 38.6553 248.584 38.6553C250.671 38.6553 252.367 40.3508 252.367 42.4376C252.367 44.5243 250.671 46.2198 248.584 46.2198C246.498 46.2198 244.802 44.5243 244.802 42.4376Z" fill="#132F38"/>
<path d="M278.702 37.3511V70.2177H272.702V67.4353H272.615C271.616 68.9569 269.094 70.7394 266.138 70.7394C259.877 70.7394 255.747 66.218 255.747 59.8273C255.747 53.9583 259.399 48.5675 265.399 48.5675C268.094 48.5675 270.616 49.3065 272.094 51.3498H272.181V37.3511H278.702ZM272.702 59.6534C272.702 56.4798 270.746 54.3061 267.485 54.3061C264.225 54.3061 262.269 56.4798 262.269 59.6534C262.269 62.827 264.225 65.0008 267.485 65.0008C270.746 65.0008 272.702 62.827 272.702 59.6534Z" fill="#132F38"/>
<path d="M299.347 63.2183L303.912 66.5658C301.825 69.2178 298.391 70.7394 295 70.7394C288.478 70.7394 283.262 66.3919 283.262 59.6534C283.262 52.9149 288.478 48.5675 295 48.5675C301.086 48.5675 304.912 52.9149 304.912 59.6534V61.6967H289.783C290.304 64.1747 292.174 65.7833 294.695 65.7833C296.826 65.7833 298.26 64.6964 299.347 63.2183ZM289.783 57.2623H298.391C298.434 55.0886 296.739 53.2627 294.391 53.2627C291.522 53.2627 289.957 55.219 289.783 57.2623Z" fill="#132F38"/>
<defs>
<clipPath id="clip0_722_2917">
<rect width="34" height="34" fill="white" transform="translate(36 36.8135)"/>
</clipPath>
</defs>
</svg>
